<?xml version="1.0" encoding="utf-8"?>
<!-- Svg Vector Icons : http://www.onlinewebfonts.com/icon -->
<!DOCTYPE svg PUBLIC "-//W3C//DTD SVG 1.1//EN" "http://www.w3.org/Graphics/SVG/1.1/DTD/svg11.dtd">
<svg version="1.1" xmlns="http://www.w3.org/2000/svg" xmlns:xlink="http://www.w3.org/1999/xlink" x="0px" y="0px" viewBox="0 0 1000 1000" enable-background="new 0 0 1000 1000" xml:space="preserve">
<metadata> Svg Vector Icons : http://www.onlinewebfonts.com/icon </metadata>
<g><g><path d="M642.5,990h-6.9c-70.5-18.4-131.1-52.9-181.7-103.5C383.3,815.9,348,730.8,348,631.1c0-39.9,14.6-74,43.7-102.4c29.1-28.4,64.4-42.6,105.8-42.6c41.4,0,77.1,14.2,107,42.6c29.9,28.4,44.9,62.5,44.9,102.4c0,26.1,9.6,48.3,28.8,66.7c19.2,18.4,43.3,27.6,72.5,27.6c29.1,0,53.7-9.2,73.6-27.6c19.9-18.4,29.9-40.6,29.9-66.7c0-92-34.9-171-104.7-236.9c-69.8-65.9-153.8-98.9-251.9-98.9c-70.5,0-135,18-193.2,54.1c-58.3,36-102,84-131.1,143.8c-18.4,38.3-27.6,84.4-27.6,138c0,61.3,10.7,120.4,32.2,177.1c4.6,15.3-0.8,25.3-16.1,29.9c-15.3,4.6-25.3,0-29.9-13.8C107.3,755.4,95,690.9,95,631.1c0-59.8,11.5-112.7,34.5-158.7c32.2-69,81.7-124.2,148.4-165.6c66.7-41.4,139.9-62.1,219.7-62.1c112,0,207.4,38,286.4,113.9c79,75.9,118.5,166.8,118.5,272.6c0,39.9-15,73.6-44.9,101.2c-29.9,27.6-65.6,41.4-107,41.4s-76.7-13.8-105.8-41.4c-29.1-27.6-43.7-61.3-43.7-101.2c0-26.1-10-48.7-29.9-67.9c-19.9-19.2-44.5-28.8-73.6-28.8c-29.1,0-53.3,9.6-72.5,28.8c-19.2,19.2-28.8,41.8-28.8,67.9c0,85.9,30.7,159.5,92,220.8c42.9,42.9,96.6,72.8,161,89.7c13.8,1.5,19.2,11.5,16.1,29.9C662.4,983.9,654.8,990,642.5,990z M520.6,631.1c0,56.7,21.1,105.8,63.3,147.2c42.2,41.4,94.7,62.1,157.6,62.1c3.1,0,10-0.8,20.7-2.3c10.7-1.5,19.6-2.3,26.5-2.3c6.9,0,13.8,1.1,20.7,3.5s11.1,7.3,12.7,15c3.1,16.9-3.8,26.8-20.7,29.9c-18.4,3.1-38.3,4.6-59.8,4.6c-61.3,0-112-14.6-151.8-43.7c-78.2-53.7-117.3-125-117.3-213.9c0-16.9,8.4-25.3,25.3-25.3C512.9,605.8,520.6,614.3,520.6,631.1z M389.4,980.8c-6.1,0-11.5-2.3-16.1-6.9c-41.4-41.4-74.4-85.1-98.9-131.1c-35.3-61.3-52.9-131.9-52.9-211.6c0-72.1,27.2-134.2,81.7-186.3c54.4-52.1,120-78.2,196.7-78.2c76.7,0,142.2,26.1,196.7,78.2c54.4,52.1,81.7,114.3,81.7,186.3c0,15.3-8.4,23-25.3,23c-16.9,0-25.3-7.7-25.3-23c0-59.8-22.2-110.8-66.7-153c-44.5-42.2-98.2-63.3-161-63.3c-62.9,0-116.6,21.1-161,63.3c-44.5,42.2-66.7,93.2-66.7,153c0,73.6,14.6,136.5,43.7,188.6c19.9,35.3,50.6,75.1,92,119.6c12.3,10.7,12.3,22.2,0,34.5C403.2,978.5,397.1,980.8,389.4,980.8z M83.5,387.3c-10.7,0-18.4-3.8-23-11.5c-4.6-7.7-3.8-16.1,2.3-25.3c49.1-70.5,110.4-124.2,184-161c76.7-39.9,161-59.8,253.1-59.8c92,0,176.4,19.9,253.1,59.8c75.1,36.8,136.5,89.7,184,158.7c9.2,15.3,6.9,26.8-6.9,34.5c-15.3,9.2-26.8,6.9-34.5-6.9c-41.4-59.8-96.6-107.4-165.6-142.6c-70.5-35.3-147.2-53.3-230-54.1c-82.8-0.8-159.5,17.3-230,54.1c-69,35.3-125,83.6-167.9,144.9C97.3,384.2,91.2,387.3,83.5,387.3z M785.1,129.6c-6.1,0-10-0.8-11.5-2.3c-90.5-46-181.7-69-273.8-69c-99.7,0-190.9,23-273.8,69c-9.2,4.6-17.3,4.2-24.2-1.2c-6.9-5.4-10.4-12.3-10.4-20.7s3.8-15.7,11.5-21.9C292.1,34.5,391,10,499.9,10c99.7,0,198.6,24.5,296.8,73.6c10.7,6.1,14.6,15.3,11.5,27.6C805.1,123.5,797.4,129.6,785.1,129.6z"/></g></g>
</svg>